<?xml version="1.0" encoding="iso-8859-1"?>
<!-- Generator: Adobe Illustrator 19.0.0, SVG Export Plug-In . SVG Version: 6.00 Build 0)  -->
<svg version="1.1" id="Layer_1" xmlns="http://www.w3.org/2000/svg" xmlns:xlink="http://www.w3.org/1999/xlink" x="0px" y="0px"
	 viewBox="0 0 512 512" style="enable-background:new 0 0 512 512;" xml:space="preserve">
<path style="fill:#FFCC75;" d="M492.936,495.66h2.723v-392.17h-2.723c-4.512,0-8.17-3.657-8.17-8.17h-16.34V503.83h16.34
	C484.766,499.317,488.424,495.66,492.936,495.66z"/>
<path style="fill:#FF9D49;" d="M353.962,495.66h98.123v-392.17h-2.723c-4.512,0-8.17-3.657-8.17-8.17h-16.34v294.128
	c0,0.936-0.169,1.854-0.476,2.721c0.303,0.854,0.476,1.769,0.476,2.726c0,4.513-3.658,8.17-8.17,8.17h-1.685L319.028,503.83h26.765
	C345.792,499.317,349.45,495.66,353.962,495.66z"/>
<path style="fill:#FFCC75;" d="M299.574,394.894c0-4.513,3.658-8.17,8.17-8.17h100.247l0.519-0.545V103.489H16.34v392.17h283.234
	V394.894z"/>
<path style="fill:#FF6E1D;" d="M449.362,87.149h2.723V16.34h-27.234v78.979h16.34C441.191,90.806,444.85,87.149,449.362,87.149z"/>
<g>
	<path style="fill:#FF9D49;" d="M492.936,87.149h2.723V16.34h-27.234v78.979h16.34C484.766,90.806,488.424,87.149,492.936,87.149z"
		/>
	<rect x="16.34" y="16.34" style="fill:#FF9D49;" width="392.17" height="70.809"/>
</g>
<polygon style="fill:#FF6E1D;" points="315.915,403.064 315.915,483.404 392.429,403.064 "/>
<path style="fill:#082947;" d="M503.83,0H8.17C3.658,0,0,3.657,0,8.17v495.66c0,4.513,3.658,8.17,8.17,8.17h299.574
	c1.143,0,2.23-0.236,3.217-0.66c0.258-0.112,0.492-0.227,0.72-0.352c0.062-0.034,0.12-0.074,0.18-0.109
	c0.169-0.099,0.337-0.199,0.498-0.309c0.087-0.06,0.17-0.126,0.255-0.191c0.13-0.096,0.259-0.192,0.382-0.295
	c0.09-0.076,0.175-0.159,0.263-0.239c0.111-0.102,0.223-0.204,0.329-0.312c0.023-0.024,0.049-0.045,0.072-0.069l5.367-5.635
	l95.967-100.766h1.685c4.512,0,8.17-3.657,8.17-8.17c0-0.958-0.173-1.873-0.476-2.726c0.306-0.867,0.476-1.784,0.476-2.721V16.34
	h27.234v70.809h-2.723c-4.512,0-8.17,3.657-8.17,8.17s3.658,8.17,8.17,8.17h2.723v392.17h-98.123c-4.512,0-8.17,3.657-8.17,8.17
	s3.658,8.17,8.17,8.17h106.294c4.512,0,8.17-3.657,8.17-8.17V16.34h27.234v70.809h-2.723c-4.512,0-8.17,3.657-8.17,8.17
	s3.658,8.17,8.17,8.17h2.723v392.17h-2.723c-4.512,0-8.17,3.657-8.17,8.17s3.658,8.17,8.17,8.17h10.894
	c4.512,0,8.17-3.657,8.17-8.17V8.17C512,3.657,508.342,0,503.83,0z M16.34,103.489h392.17v282.689l-0.519,0.545H307.745
	c-4.512,0-8.17,3.657-8.17,8.17V495.66H16.34V103.489z M315.915,403.064h76.515l-76.515,80.34V403.064z M16.34,87.149V16.34h392.17
	v70.809H16.34z"/>
<g>
</g>
<g>
</g>
<g>
</g>
<g>
</g>
<g>
</g>
<g>
</g>
<g>
</g>
<g>
</g>
<g>
</g>
<g>
</g>
<g>
</g>
<g>
</g>
<g>
</g>
<g>
</g>
<g>
</g>
</svg>
